<svg xmlns="http://www.w3.org/2000/svg" xmlns:xlink="http://www.w3.org/1999/xlink" width="1653" zoomAndPan="magnify" viewBox="0 0 1239.75 1754.249991" height="2339" preserveAspectRatio="xMidYMid meet" version="1.0"><defs><clipPath id="21be1eb080"><path d="M 349.246094 500.328125 L 842.644531 500.328125 L 842.644531 1043 L 349.246094 1043 Z M 349.246094 500.328125 " clip-rule="nonzero"/></clipPath><clipPath id="0744e8c5cb"><path d="M 842.640625 500.332031 L 598.503906 764.128906 L 463.3125 1038.5 C 462.914062 1039.839844 459.542969 1042.800781 458.613281 1042.800781 L 349.25 1042.800781 L 592.386719 765.019531 L 722.570312 504.609375 C 722.882812 503.230469 727.710938 500.332031 728.277344 500.332031 Z M 842.640625 500.332031 " clip-rule="nonzero"/></clipPath><clipPath id="c0dbbb5b6d"><path d="M 600.941406 769 L 839.648438 769 L 839.648438 1043 L 600.941406 1043 Z M 600.941406 769 " clip-rule="nonzero"/></clipPath><clipPath id="ba9ffa1b36"><path d="M 839.640625 1042.789062 L 730.277344 1042.789062 C 729.597656 1042.789062 726.46875 1040.140625 725.769531 1039.3125 C 683.808594 949.441406 641.707031 859.46875 600.953125 769.066406 Z M 839.640625 1042.789062 " clip-rule="nonzero"/></clipPath><clipPath id="b7966b5420"><path d="M 356 500.328125 L 590.953125 500.328125 L 590.953125 764 L 356 764 Z M 356 500.328125 " clip-rule="nonzero"/></clipPath><clipPath id="5b2a2d525c"><path d="M 469.601562 500.332031 C 471.519531 500.75 475.238281 504.71875 476.296875 506.628906 L 590.949219 763.070312 L 356.238281 500.332031 Z M 469.601562 500.332031 " clip-rule="nonzero"/></clipPath></defs><g clip-path="url(#21be1eb080)"><g clip-path="url(#0744e8c5cb)"><path fill="#0c2b49" d="M 344.253906 495.335938 L 847.640625 495.335938 L 847.640625 1047.660156 L 344.253906 1047.660156 Z M 344.253906 495.335938 " fill-opacity="1" fill-rule="nonzero"/></g></g><g clip-path="url(#c0dbbb5b6d)"><g clip-path="url(#ba9ffa1b36)"><path fill="#0c2b49" d="M 344.253906 495.335938 L 847.640625 495.335938 L 847.640625 1047.660156 L 344.253906 1047.660156 Z M 344.253906 495.335938 " fill-opacity="1" fill-rule="nonzero"/></g></g><g clip-path="url(#b7966b5420)"><g clip-path="url(#5b2a2d525c)"><path fill="#0c2b49" d="M 344.253906 495.335938 L 847.640625 495.335938 L 847.640625 1047.660156 L 344.253906 1047.660156 Z M 344.253906 495.335938 " fill-opacity="1" fill-rule="nonzero"/></g></g></svg>