<svg xmlns="http://www.w3.org/2000/svg" xmlns:xlink="http://www.w3.org/1999/xlink" width="1653" zoomAndPan="magnify" viewBox="0 0 1239.75 1754.249991" height="2339" preserveAspectRatio="xMidYMid meet" version="1.0"><defs><clipPath id="e4317fb9ab"><path d="M 373.042969 816.269531 L 463.789062 816.269531 L 463.789062 937.382812 L 373.042969 937.382812 Z M 373.042969 816.269531 " clip-rule="nonzero"/></clipPath><clipPath id="1ed7f8701f"><path d="M 385.941406 816.292969 L 385.941406 871.238281 L 451.863281 871.238281 L 451.863281 816.292969 C 456.402344 816.019531 460.808594 818.699219 463.089844 822.546875 L 463.789062 928.625 C 462.929688 934.050781 456.953125 936.941406 451.863281 937.167969 L 451.863281 881.222656 L 385.941406 881.222656 L 385.941406 937.167969 C 381.113281 936.621094 377.324219 934.75 375.246094 930.902344 C 374.40625 929.351562 373.476562 927.964844 373.476562 926.203125 C 373.457031 904.511719 373.367188 862.730469 373.40625 828.207031 C 373.417969 821.097656 378.65625 816.292969 385.941406 816.292969 " clip-rule="nonzero"/></clipPath><clipPath id="cfc4fab3b9"><path d="M 575 815.382812 L 687 815.382812 L 687 938.386719 L 575 938.386719 Z M 575 815.382812 " clip-rule="nonzero"/></clipPath><clipPath id="78684b21d3"><path d="M 686.636719 815.640625 L 631.539062 875.171875 L 601.03125 937.085938 C 600.941406 937.386719 600.183594 938.054688 599.972656 938.054688 L 575.292969 938.054688 L 630.160156 875.363281 L 659.539062 816.609375 C 659.609375 816.296875 660.699219 815.640625 660.828125 815.640625 Z M 686.636719 815.640625 " clip-rule="nonzero"/></clipPath><clipPath id="2ef5445825"><path d="M 632 876.105469 L 686 876.105469 L 686 938.386719 L 632 938.386719 Z M 632 876.105469 " clip-rule="nonzero"/></clipPath><clipPath id="4d8373b785"><path d="M 685.964844 938.054688 L 661.277344 938.054688 C 661.128906 938.054688 660.417969 937.457031 660.257812 937.265625 C 650.792969 916.984375 641.285156 896.683594 632.089844 876.28125 Z M 685.964844 938.054688 " clip-rule="nonzero"/></clipPath><clipPath id="b6c8e2081d"><path d="M 576.558594 815.382812 L 630 815.382812 L 630 875 L 576.558594 875 Z M 576.558594 815.382812 " clip-rule="nonzero"/></clipPath><clipPath id="3be8e7176f"><path d="M 602.453125 815.640625 C 602.882812 815.730469 603.722656 816.628906 603.960938 817.058594 L 629.832031 874.933594 L 576.875 815.640625 Z M 602.453125 815.640625 " clip-rule="nonzero"/></clipPath><clipPath id="e5cae5cc92"><path d="M 686.589844 815.382812 L 769.628906 815.382812 L 769.628906 937.867188 L 686.589844 937.867188 Z M 686.589844 815.382812 " clip-rule="nonzero"/></clipPath><clipPath id="52db002d7b"><path d="M 702.050781 871.234375 L 759.476562 871.234375 L 759.476562 881.222656 L 701.058594 881.222656 L 699.5625 881.25 C 699.691406 890.847656 698.449219 907.25 703.160156 916.085938 C 713.253906 940.40625 768.601562 912.996094 769.480469 937.167969 C 687.226562 940.527344 683.996094 933.289062 687.546875 851.714844 C 689.054688 829.652344 698.441406 818.199219 721.0625 816.308594 C 728.6875 815.667969 755.335938 815.058594 761.785156 816.507812 C 765.953125 817.4375 768.609375 822.1875 768.480469 826.285156 C 725.570312 829.113281 695.492188 810.929688 699.570312 871.285156 " clip-rule="nonzero"/></clipPath><clipPath id="85fdeeabb2"><path d="M 482.617188 815 L 566 815 L 566 937.867188 L 482.617188 937.867188 Z M 482.617188 815 " clip-rule="nonzero"/></clipPath><clipPath id="a2ac984f26"><path d="M 498.355469 870.804688 L 555.792969 870.804688 L 555.792969 880.792969 L 497.355469 880.792969 L 495.859375 880.820312 C 495.988281 890.417969 494.75 906.820312 499.457031 915.65625 C 509.550781 939.976562 564.898438 912.566406 565.777344 936.738281 C 483.523438 940.097656 480.292969 932.859375 483.832031 851.285156 C 485.34375 829.222656 494.726562 817.777344 517.347656 815.878906 C 524.976562 815.238281 551.625 814.628906 558.070312 816.078125 C 562.238281 817.007812 564.898438 821.757812 564.777344 825.855469 C 521.867188 828.683594 491.78125 810.5 495.859375 870.855469 " clip-rule="nonzero"/></clipPath><clipPath id="cf01d01b8a"><path d="M 789.023438 816 L 866.351562 816 L 866.351562 937.710938 L 789.023438 937.710938 Z M 789.023438 816 " clip-rule="nonzero"/></clipPath><clipPath id="2dbc783e58"><path d="M 866.347656 937.167969 C 846.898438 935.679688 807.355469 943.574219 794.609375 923.511719 C 785.171875 917.414062 790.882812 826.375 789.441406 816.289062 C 795.449219 816.046875 800.175781 819.945312 801.367188 825.84375 C 803.15625 851.683594 799.199219 880.222656 801.398438 905.730469 C 802.554688 919.234375 810.132812 925.421875 823.175781 926.902344 C 836.050781 929.808594 865.519531 918.816406 866.347656 937.167969 " clip-rule="nonzero"/></clipPath></defs><g clip-path="url(#e4317fb9ab)"><g clip-path="url(#1ed7f8701f)"><path fill="#b29d89" d="M 373.398438 816.269531 L 463.789062 816.269531 L 463.789062 937.03125 L 373.398438 937.03125 Z M 373.398438 816.269531 " fill-opacity="1" fill-rule="nonzero"/></g></g><g clip-path="url(#cfc4fab3b9)"><g clip-path="url(#78684b21d3)"><path fill="#0c2b49" d="M 477.945312 810.191406 L 774.300781 810.191406 L 774.300781 943.058594 L 477.945312 943.058594 Z M 477.945312 810.191406 " fill-opacity="1" fill-rule="nonzero"/></g></g><g clip-path="url(#2ef5445825)"><g clip-path="url(#4d8373b785)"><path fill="#0c2b49" d="M 477.945312 810.191406 L 774.300781 810.191406 L 774.300781 943.058594 L 477.945312 943.058594 Z M 477.945312 810.191406 " fill-opacity="1" fill-rule="nonzero"/></g></g><g clip-path="url(#b6c8e2081d)"><g clip-path="url(#3be8e7176f)"><path fill="#0c2b49" d="M 477.945312 810.191406 L 774.300781 810.191406 L 774.300781 943.058594 L 477.945312 943.058594 Z M 477.945312 810.191406 " fill-opacity="1" fill-rule="nonzero"/></g></g><g clip-path="url(#e5cae5cc92)"><g clip-path="url(#52db002d7b)"><path fill="#b29d89" d="M 477.945312 810.191406 L 774.300781 810.191406 L 774.300781 943.058594 L 477.945312 943.058594 Z M 477.945312 810.191406 " fill-opacity="1" fill-rule="nonzero"/></g></g><g clip-path="url(#85fdeeabb2)"><g clip-path="url(#a2ac984f26)"><path fill="#b29d89" d="M 477.945312 810.191406 L 774.300781 810.191406 L 774.300781 943.058594 L 477.945312 943.058594 Z M 477.945312 810.191406 " fill-opacity="1" fill-rule="nonzero"/></g></g><g clip-path="url(#cf01d01b8a)"><g clip-path="url(#2dbc783e58)"><path fill="#b29d89" d="M 789.023438 816.277344 L 866.351562 816.277344 L 866.351562 937.40625 L 789.023438 937.40625 Z M 789.023438 816.277344 " fill-opacity="1" fill-rule="nonzero"/></g></g></svg>